<svg width="24" height="24" viewBox="0 0 24 24" fill="none" xmlns="http://www.w3.org/2000/svg">
<path fill-rule="evenodd" clip-rule="evenodd" d="M19.9578 5.28896C20.1906 4.51297 19.4524 3.79674 18.6838 4.05293L3.68379 9.05293C2.80003 9.34752 2.76369 10.5841 3.62863 10.9301L10.744 13.7763L13.623 20.6066C13.9911 21.4655 15.2315 21.3951 15.5 20.5L19.9578 5.28896ZM11.2603 11.8287L6.9061 10.087L17.4886 6.5595L14.376 17.2864L12.6857 13.2295C12.6929 13.2227 12.7 13.2158 12.7071 13.2087L14.7071 11.2087C15.0976 10.8182 15.0976 10.185 14.7071 9.79451C14.3166 9.40398 13.6834 9.40398 13.2929 9.79451L11.2929 11.7945C11.2817 11.8057 11.2708 11.8171 11.2603 11.8287Z" fill="#49454F"/>
</svg>
