<svg width="30" height="30" viewBox="0 0 30 30" fill="none" xmlns="http://www.w3.org/2000/svg">
<path d="M30 15C30 23.2843 23.2843 30 15 30C6.71573 30 0 23.2843 0 15C0 6.71573 6.71573 0 15 0C23.2843 0 30 6.71573 30 15Z" fill="#49454F"/>
<path fill-rule="evenodd" clip-rule="evenodd" d="M21.9578 9.21865C22.1906 8.48499 21.4524 7.80783 20.6838 8.05004L5.68379 12.7773C4.80003 13.0558 4.76369 14.225 5.62863 14.5521L12.744 17.243L15.623 23.7008C15.9911 24.5128 17.2315 24.4463 17.5 23.6L21.9578 9.21865ZM13.2603 15.4017L8.9061 13.755L19.4886 10.4199L16.376 20.5617L14.6857 16.7261C14.6929 16.7196 14.7 16.7131 14.7071 16.7064L16.7071 14.8155C17.0976 14.4463 17.0976 13.8476 16.7071 13.4784C16.3166 13.1092 15.6834 13.1092 15.2929 13.4784L13.2929 15.3693C13.2817 15.3799 13.2708 15.3907 13.2603 15.4017Z" fill="#FFF6FF"/>
</svg>
