<svg width="30" height="30" viewBox="0 0 30 30" fill="none" xmlns="http://www.w3.org/2000/svg">
<circle cx="15" cy="15" r="15" fill="#49454F"/>
<path fill-rule="evenodd" clip-rule="evenodd" d="M15.0001 6L24.614 13.4775C25.05 13.8166 25.1285 14.4449 24.7894 14.8808C24.4504 15.3168 23.8221 15.3953 23.3861 15.0562L22.0001 13.9782V22.2669C22.0001 22.8192 21.5524 23.2669 21.0001 23.2669H9.00006C8.44778 23.2669 8.00006 22.8192 8.00006 22.2669V13.9782L6.61399 15.0562C6.17804 15.3953 5.54976 15.3168 5.21069 14.8808C4.87162 14.4449 4.95016 13.8166 5.3861 13.4775L15.0001 6ZM14.0001 21.2669H16.0001V17.2669H14.0001V21.2669ZM18.0001 21.2669V15.2669H12.0001V21.2669H10.0001V12.9892L15.0001 8.86057L20.0001 12.9892V21.2669H18.0001Z" fill="#FFF6FF"/>
</svg>
